G04 PROTEUS GERBER X2 FILE*
%TF.GenerationSoftware,Labcenter,Proteus,8.6-SP2-Build23525*%
%TF.CreationDate,2021-09-07T15:34:43+00:00*%
%TF.FileFunction,Copper,L2,Bot*%
%TF.FilePolarity,Positive*%
%TF.Part,Single*%
%FSLAX45Y45*%
%MOMM*%
G01*
%TA.AperFunction,Conductor*%
%ADD10C,0.254000*%
%TA.AperFunction,ComponentPad*%
%ADD11R,1.270000X1.270000*%
%ADD12C,1.270000*%
%TA.AperFunction,ComponentPad*%
%ADD13C,1.778000*%
%TA.AperFunction,ComponentPad*%
%ADD14C,2.032000*%
%TA.AperFunction,ComponentPad*%
%ADD15R,2.032000X2.032000*%
%TA.AperFunction,WasherPad*%
%ADD16C,1.397000*%
%TA.AperFunction,Profile*%
%ADD17C,0.203200*%
%TD.AperFunction*%
D10*
X+1020000Y+639000D02*
X+766000Y+893000D01*
X+766000Y+1401000D01*
X+1576000Y+790000D02*
X+2540000Y+790000D01*
X+2540000Y+635000D01*
X+1576000Y+790000D02*
X+1294000Y+508000D01*
X+897000Y+508000D01*
X+766000Y+639000D01*
X+635000Y+258000D02*
X+381000Y+258000D01*
X+258000Y+381000D01*
X+258000Y+639000D01*
X+1576000Y+1044000D02*
X+1576000Y+1270000D01*
X+1516000Y+1330000D01*
X+1516000Y+1750000D01*
D11*
X+258000Y+639000D03*
D12*
X+512000Y+639000D03*
X+766000Y+639000D03*
X+1020000Y+639000D03*
X+1020000Y+1401000D03*
X+766000Y+1401000D03*
X+512000Y+1401000D03*
X+258000Y+1401000D03*
D13*
X+2528000Y+1139000D03*
X+2528000Y+1520000D03*
D14*
X+635000Y+258000D03*
X+1143000Y+258000D03*
X+889000Y+258000D03*
D15*
X+2540000Y+635000D03*
X+2286000Y+635000D03*
D16*
X+1651000Y+258000D03*
X+1851000Y+258000D03*
D15*
X+1576000Y+1044000D03*
X+1576000Y+790000D03*
D13*
X+500000Y+1750000D03*
X+1516000Y+1750000D03*
D17*
X+0Y+0D02*
X+3000000Y+0D01*
X+3000000Y+2000000D01*
X+0Y+2000000D01*
X+0Y+0D01*
M02*
