G04 PROTEUS GERBER X2 FILE*
%TF.GenerationSoftware,Labcenter,Proteus,8.6-SP2-Build23525*%
%TF.CreationDate,2021-09-07T15:34:43+00:00*%
%TF.FileFunction,AssemblyDrawing,Top*%
%TF.FilePolarity,Positive*%
%TF.Part,Single*%
%FSLAX45Y45*%
%MOMM*%
G01*
%TA.AperFunction,Material*%
%ADD18C,0.203200*%
%ADD26C,0.345440*%
%ADD27C,0.136810*%
%ADD28C,0.227330*%
%ADD29C,0.118360*%
%ADD70C,0.152400*%
%ADD72C,0.160020*%
%ADD73C,0.197270*%
%ADD30C,0.106680*%
%TA.AperFunction,Profile*%
%ADD17C,0.203200*%
%TD.AperFunction*%
D18*
X+120840Y+575500D02*
X+1157160Y+575500D01*
X+1157160Y+1464500D01*
X+120840Y+1464500D01*
X+120840Y+575500D01*
D26*
X+362648Y+1123632D02*
X+362648Y+950912D01*
X+397192Y+916368D01*
X+535368Y+916368D01*
X+569912Y+950912D01*
X+569912Y+1123632D01*
X+708088Y+1054544D02*
X+777176Y+1123632D01*
X+777176Y+916368D01*
D18*
X+2185974Y+987474D02*
X+2870026Y+987474D01*
X+2870026Y+1671526D01*
X+2185974Y+1671526D01*
X+2185974Y+987474D01*
D27*
X+2486957Y+1110604D02*
X+2569043Y+1110604D01*
X+2569043Y+1192690D01*
X+2569043Y+1220052D02*
X+2486957Y+1220052D01*
X+2486957Y+1274776D01*
X+2514319Y+1302138D01*
X+2541681Y+1302138D01*
X+2569043Y+1274776D01*
X+2569043Y+1220052D01*
X+2569043Y+1329500D02*
X+2486957Y+1329500D01*
X+2486957Y+1397905D01*
X+2500638Y+1411586D01*
X+2514319Y+1411586D01*
X+2528000Y+1397905D01*
X+2528000Y+1329500D01*
X+2528000Y+1397905D02*
X+2541681Y+1411586D01*
X+2569043Y+1411586D01*
X+2514319Y+1466310D02*
X+2486957Y+1493672D01*
X+2569043Y+1493672D01*
D18*
X+434340Y+57340D02*
X+1343660Y+57340D01*
X+1343660Y+458660D01*
X+434340Y+458660D01*
X+434340Y+57340D01*
D28*
X+616204Y+189801D02*
X+616204Y+326199D01*
X+729869Y+326199D01*
X+752602Y+303466D01*
X+752602Y+280733D01*
X+729869Y+258000D01*
X+616204Y+258000D01*
X+729869Y+258000D02*
X+752602Y+235267D01*
X+752602Y+189801D01*
X+798068Y+326199D02*
X+798068Y+258000D01*
X+866267Y+189801D01*
X+934466Y+258000D01*
X+934466Y+326199D01*
X+1025398Y+280733D02*
X+1070864Y+326199D01*
X+1070864Y+189801D01*
D18*
X+2148840Y+307340D02*
X+2740660Y+307340D01*
X+2740660Y+899160D01*
X+2148840Y+899160D01*
X+2148840Y+307340D01*
D29*
X+2255368Y+567740D02*
X+2255368Y+638759D01*
X+2314549Y+638759D01*
X+2326386Y+626922D01*
X+2326386Y+615086D01*
X+2314549Y+603250D01*
X+2326386Y+591413D01*
X+2326386Y+579577D01*
X+2314549Y+567740D01*
X+2255368Y+567740D01*
X+2255368Y+603250D02*
X+2314549Y+603250D01*
X+2350059Y+638759D02*
X+2350059Y+579577D01*
X+2361895Y+567740D01*
X+2409240Y+567740D01*
X+2421077Y+579577D01*
X+2421077Y+638759D01*
X+2444750Y+638759D02*
X+2515768Y+638759D01*
X+2444750Y+567740D01*
X+2515768Y+567740D01*
X+2563113Y+615086D02*
X+2586786Y+638759D01*
X+2586786Y+567740D01*
D70*
X+1476680Y+383400D02*
X+1476680Y+131940D01*
X+2025320Y+131940D01*
X+2025320Y+383400D01*
X+1476680Y+383400D01*
X+1476680Y+131940D01*
X+2025320Y+131940D01*
X+2025320Y+383400D01*
X+1476680Y+383400D01*
D72*
X+1622984Y+241668D02*
X+1622984Y+225666D01*
X+1638986Y+209664D01*
X+1702994Y+209664D01*
X+1718996Y+225666D01*
X+1718996Y+305676D01*
X+1783004Y+273672D02*
X+1815008Y+305676D01*
X+1815008Y+209664D01*
D18*
X+1311840Y+652840D02*
X+1903660Y+652840D01*
X+1903660Y+1244660D01*
X+1311840Y+1244660D01*
X+1311840Y+652840D01*
D73*
X+1666932Y+790932D02*
X+1548568Y+790932D01*
X+1548568Y+869841D01*
X+1588023Y+909295D01*
X+1627477Y+909295D01*
X+1666932Y+869841D01*
X+1666932Y+790932D01*
X+1588023Y+988204D02*
X+1548568Y+1027659D01*
X+1666932Y+1027659D01*
D18*
X+411100Y+1661100D02*
X+1604900Y+1661100D01*
X+1604900Y+1838900D01*
X+411100Y+1838900D01*
X+411100Y+1661100D01*
D30*
X+922656Y+1717996D02*
X+922656Y+1782004D01*
X+975996Y+1782004D01*
X+986664Y+1771336D01*
X+986664Y+1760668D01*
X+975996Y+1750000D01*
X+922656Y+1750000D01*
X+975996Y+1750000D02*
X+986664Y+1739332D01*
X+986664Y+1717996D01*
X+1029336Y+1760668D02*
X+1050672Y+1782004D01*
X+1050672Y+1717996D01*
D17*
X+0Y+0D02*
X+3000000Y+0D01*
X+3000000Y+2000000D01*
X+0Y+2000000D01*
X+0Y+0D01*
M02*
